<svg width="20" height="20" viewBox="0 0 20 20" fill="none" xmlns="http://www.w3.org/2000/svg">
<path d="M2.2264 16.2564L2.22644 16.2564L2.22284 16.2501L0.535366 13.3251L0.535525 13.3251L0.528434 13.3135C0.496621 13.2617 0.494544 13.2297 0.507184 13.1843C0.528127 13.1092 0.565485 13.0522 0.630385 13.0016L2.40194 11.7326C2.82751 11.4278 2.9862 10.9267 2.96679 10.4903C2.95852 10.3041 2.9545 10.1409 2.9545 10C2.9545 9.85911 2.95852 9.6959 2.96679 9.50971C2.9862 9.07328 2.82751 8.5722 2.40194 8.26737L0.630395 6.99843C0.56549 6.94778 0.528128 6.89075 0.507184 6.81567C0.494544 6.77035 0.496621 6.73835 0.528434 6.68651L0.528591 6.6866L0.535366 6.67486L2.22284 3.74986L2.22288 3.74988L2.2264 3.74358C2.27092 3.66376 2.31691 3.63236 2.37293 3.61493C2.43873 3.59446 2.50109 3.5954 2.58259 3.63136L3.92445 4.23801C4.73854 4.60606 5.64456 4.4582 6.35458 4.06149C7.03909 3.67902 7.66413 3.02331 7.8044 2.14896L8.03499 0.711611C8.04769 0.648018 8.07418 0.604989 8.12454 0.564436C8.1798 0.519938 8.23512 0.5 8.30952 0.5H11.6845C11.7589 0.5 11.8142 0.519938 11.8694 0.564436C11.9199 0.605051 11.9464 0.648151 11.9591 0.711906L12.1855 2.10962C12.3278 2.98799 12.9349 3.67407 13.6644 4.05556C14.3498 4.41407 15.2492 4.60887 16.0679 4.23873L17.4102 3.6319C17.4106 3.63173 17.411 3.63155 17.4114 3.63137C17.4929 3.5954 17.5553 3.59446 17.6211 3.61493C17.6771 3.63236 17.7231 3.66376 17.7676 3.74358L17.7675 3.74362L17.7721 3.75147L19.4596 6.65147L19.4594 6.65154L19.4655 6.6615C19.4996 6.71704 19.5077 6.76344 19.4931 6.82899C19.4796 6.88997 19.451 6.93825 19.3792 6.98739L19.3767 6.98914L17.6231 8.20535C17.1802 8.51251 17.0068 9.02704 17.0272 9.48471C17.0354 9.67006 17.0395 9.84175 17.0395 10C17.0395 10.1582 17.0354 10.3254 17.0272 10.5018C17.0064 10.9509 17.1732 11.4576 17.6074 11.7637L19.3648 13.0025C19.429 13.0529 19.466 13.1097 19.4868 13.1843C19.4994 13.2296 19.4974 13.2616 19.4655 13.3135L19.4654 13.3134L19.4586 13.3251L17.7711 16.2501L17.7711 16.2501L17.7676 16.2564C17.7231 16.3362 17.6771 16.3676 17.6211 16.3851C17.5552 16.4055 17.4929 16.4046 17.4113 16.3686C17.4109 16.3684 17.4106 16.3683 17.4102 16.3681L16.0659 15.7603C15.2549 15.3937 14.347 15.5365 13.64 15.958C12.9746 16.3547 12.329 17.0049 12.1852 17.8925L11.9591 19.2881C11.9464 19.3518 11.9199 19.3949 11.8694 19.4356C11.8142 19.4801 11.7589 19.5 11.6845 19.5H8.30952C8.23512 19.5 8.1798 19.4801 8.12454 19.4356C8.0741 19.3949 8.0476 19.3518 8.03493 19.2881L7.80751 17.8844C7.66563 17.0087 7.05917 16.3322 6.35458 15.9385C5.64456 15.5418 4.73854 15.3939 3.92445 15.762L2.58381 16.3681C2.58343 16.3683 2.58304 16.3684 2.58266 16.3686C2.50112 16.4046 2.43874 16.4055 2.37293 16.3851C2.31691 16.3676 2.27092 16.3362 2.2264 16.2564Z" fill="#9E9E9E" stroke="black"/>
<path d="M11.9603 15.0203L9.5 10L3.98065 10.316L5.43574 5.62766L8.22319 3.88551L15.2621 6.46411L14.9488 14.0256L11.9603 15.0203Z" fill="#FF0036"/>
<mask id="path-3-inside-1_391_132" fill="white">
<path d="M10 13C10 14.1046 9.10457 15 8 15C6.89543 15 6 14.1046 6 13C6 11.8954 6.89543 11 8 11C9.10457 11 10 11.8954 10 13Z"/>
</mask>
<path d="M10 13C10 14.1046 9.10457 15 8 15C6.89543 15 6 14.1046 6 13C6 11.8954 6.89543 11 8 11C9.10457 11 10 11.8954 10 13Z" fill="#FFB800"/>
<path d="M6 13C6 11.8954 6.89543 11 8 11V19C11.3137 19 14 16.3137 14 13H6ZM8 11C9.10457 11 10 11.8954 10 13H2C2 16.3137 4.68629 19 8 19V11ZM10 13C10 14.1046 9.10457 15 8 15V7C4.68629 7 2 9.68629 2 13H10ZM8 15C6.89543 15 6 14.1046 6 13H14C14 9.68629 11.3137 7 8 7V15Z" fill="#D3D3D3" mask="url(#path-3-inside-1_391_132)"/>
</svg>
