<svg width="58" height="47" viewBox="0 0 58 47" fill="none" xmlns="http://www.w3.org/2000/svg">
<path fill-rule="evenodd" clip-rule="evenodd" d="M26 45.4502V40.7002L10.5 32.9502H1V21.9502H9.75L16 14.9502V5.4502H27V8.7251L38.5 5.1002V1H49.5V12H45.8L52.8 21H57V32H46V29L37 36.5V45.4502H26ZM9 29.9502H4V24.9502H9V29.9502ZM34 42.4502H29V37.4502H34V42.4502ZM54 29H49V24H54V29ZM46.5 9H41.5V4H46.5V9ZM18.7 16.4502H27V12L38.5 8.4502V12H42L49 21H46V24.9502L35 34.4502H26V37.3502L12 30.4002V23.9502L18.7 16.4502ZM24 13.4502H19V8.4502H24V13.4502Z" fill="#DFDFDF" stroke="#DFDFDF" stroke-width="1.2"/>
</svg>
