<svg width="58" height="47" viewBox="0 0 58 47" fill="none" xmlns="http://www.w3.org/2000/svg">
<path d="M26 40.7002V45.4502H37V36.5L46 29V32H57V21H52.8L45.8 12H49.5V1H38.5V5.1002L27 8.7251V5.4502H16V14.9502L9.75 21.9502H1V32.9502H10.5L26 40.7002Z" stroke="#DFDFDF" stroke-width="1.8"/>
<path d="M9 29.9502H4V24.9502H9V29.9502Z" stroke="#DFDFDF" stroke-width="1.8"/>
<path d="M34 42.4502H29V37.4502H34V42.4502Z" stroke="#DFDFDF" stroke-width="1.8"/>
<path d="M54 29H49V24H54V29Z" stroke="#DFDFDF" stroke-width="1.8"/>
<path d="M46.5 9H41.5V4H46.5V9Z" stroke="#DFDFDF" stroke-width="1.8"/>
<path d="M18.7 16.4502H27V12L38.5 8.4502V12H42L49 21H46V24.9502L35 34.4502H26V37.3502L12 30.4002V23.9502L18.7 16.4502Z" stroke="#DFDFDF" stroke-width="1.8"/>
<path d="M24 13.4502H19V8.4502H24V13.4502Z" stroke="#DFDFDF" stroke-width="1.8"/>
</svg>
